<svg width="50" height="41" viewBox="0 0 50 41" fill="none" xmlns="http://www.w3.org/2000/svg">
<path d="M5 40.0818C3.625 40.0818 2.44833 39.5926 1.47 38.6143C0.49 37.6343 0 36.4568 0 35.0818V5.08179C0 3.70679 0.49 2.53012 1.47 1.55179C2.44833 0.571787 3.625 0.0817871 5 0.0817871H45C46.375 0.0817871 47.5525 0.571787 48.5325 1.55179C49.5108 2.53012 50 3.70679 50 5.08179V35.0818C50 36.4568 49.5108 37.6343 48.5325 38.6143C47.5525 39.5926 46.375 40.0818 45 40.0818H5ZM5 35.0818H45V10.0818H5V35.0818ZM13.75 32.5818L10.25 29.0818L16.6875 22.5818L10.1875 16.0818L13.75 12.5818L23.75 22.5818L13.75 32.5818ZM25 32.5818V27.5818H40V32.5818H25Z" fill="#125B50"/>
</svg>
