<svg width="19" height="43" viewBox="0 0 19 43" fill="none" xmlns="http://www.w3.org/2000/svg">
<path d="M11.0166 1.91797C11.0166 1.22761 10.457 0.667969 9.7666 0.667969C9.07625 0.667969 8.5166 1.22761 8.5166 1.91797L11.0166 1.91797ZM8.88272 42.3998C9.37087 42.888 10.1623 42.888 10.6505 42.3998L18.6054 34.4449C19.0936 33.9567 19.0936 33.1653 18.6054 32.6771C18.1173 32.189 17.3258 32.189 16.8377 32.6771L9.7666 39.7482L2.69553 32.6771C2.20738 32.189 1.41592 32.189 0.927765 32.6771C0.43961 33.1653 0.43961 33.9567 0.927765 34.4449L8.88272 42.3998ZM8.5166 1.91797L8.5166 41.5159L11.0166 41.5159L11.0166 1.91797L8.5166 1.91797Z" fill="#343434"/>
</svg>
