<svg width="50" height="50" viewBox="0 0 50 50" fill="none" xmlns="http://www.w3.org/2000/svg">
<circle cx="25" cy="25" r="25" fill="#FF5E00"/>
<path d="M26.6463 34.3537C26.5999 34.3073 26.563 34.2521 26.5378 34.1914C26.5127 34.1307 26.4997 34.0657 26.4997 34C26.4997 33.9343 26.5127 33.8692 26.5378 33.8085C26.563 33.7478 26.5999 33.6927 26.6463 33.6462L34.7926 25.5L14.0001 25.5C13.8675 25.5 13.7403 25.4473 13.6465 25.3535C13.5528 25.2598 13.5001 25.1326 13.5001 25C13.5001 24.8674 13.5528 24.7402 13.6465 24.6464C13.7403 24.5527 13.8675 24.5 14.0001 24.5L34.7926 24.5L26.6463 16.3537C26.5999 16.3073 26.563 16.2521 26.5379 16.1914C26.5128 16.1307 26.4998 16.0657 26.4998 16C26.4998 15.9343 26.5128 15.8692 26.5379 15.8085C26.563 15.7478 26.5999 15.6927 26.6463 15.6462C26.6928 15.5998 26.748 15.5629 26.8086 15.5378C26.8693 15.5126 26.9344 15.4997 27.0001 15.4997C27.0658 15.4997 27.1308 15.5126 27.1915 15.5378C27.2522 15.5629 27.3074 15.5998 27.3538 15.6462L36.3538 24.6462C36.4003 24.6927 36.4372 24.7478 36.4624 24.8085C36.4875 24.8692 36.5005 24.9343 36.5005 25C36.5005 25.0657 36.4875 25.1307 36.4624 25.1914C36.4372 25.2521 36.4003 25.3073 36.3538 25.3537L27.3538 34.3537C27.3074 34.4002 27.2523 34.4371 27.1916 34.4623C27.1309 34.4874 27.0658 34.5004 27.0001 34.5004C26.9344 34.5004 26.8693 34.4874 26.8086 34.4623C26.7479 34.4371 26.6928 34.4002 26.6463 34.3537Z" fill="white"/>
</svg>
