<svg width="82" height="21" viewBox="0 0 82 21" fill="none" xmlns="http://www.w3.org/2000/svg">
<path d="M8.07692 20.4831C6.50462 20.4831 5.10462 20.1385 3.87692 19.4492C2.67077 18.7385 1.72308 17.7585 1.03385 16.5092C0.344615 15.26 0 13.8062 0 12.1477C0 10.4677 0.333846 8.99231 1.00154 7.72154C1.69077 6.45077 2.63846 5.46 3.84462 4.74923C5.07231 4.03846 6.49385 3.68308 8.10923 3.68308C9.68154 3.68308 11.0492 4.03846 12.2123 4.74923C13.3754 5.43846 14.28 6.36462 14.9262 7.52769C15.5723 8.69077 15.8954 9.97231 15.8954 11.3723C15.8954 11.5877 15.8846 11.8246 15.8631 12.0831C15.8631 12.32 15.8523 12.5892 15.8308 12.8908H3.36C3.46769 14.4415 3.97385 15.6262 4.87846 16.4446C5.80462 17.2415 6.87077 17.64 8.07692 17.64C9.04615 17.64 9.85385 17.4246 10.5 16.9938C11.1677 16.5415 11.6631 15.9385 11.9862 15.1846H15.4108C14.98 16.6923 14.1185 17.9523 12.8262 18.9646C11.5554 19.9769 9.97231 20.4831 8.07692 20.4831ZM8.07692 6.49385C6.93538 6.49385 5.92308 6.83846 5.04 7.52769C4.15692 8.19538 3.61846 9.20769 3.42462 10.5646H12.4708C12.4062 9.31539 11.9646 8.32462 11.1462 7.59231C10.3277 6.86 9.30462 6.49385 8.07692 6.49385Z" fill="black"/>
<path d="M25.8457 20.4831C23.821 20.4831 22.1518 19.9877 20.838 18.9969C19.5241 18.0062 18.7703 16.6923 18.5764 15.0554H22.0333C22.2056 15.7877 22.6149 16.4231 23.261 16.9615C23.9072 17.4785 24.758 17.7369 25.8133 17.7369C26.8472 17.7369 27.601 17.5215 28.0749 17.0908C28.5487 16.66 28.7857 16.1646 28.7857 15.6046C28.7857 14.7862 28.4518 14.2369 27.7841 13.9569C27.138 13.6554 26.2333 13.3862 25.0703 13.1492C24.1656 12.9554 23.261 12.6969 22.3564 12.3738C21.4733 12.0508 20.7303 11.5985 20.1272 11.0169C19.5456 10.4138 19.2549 9.60615 19.2549 8.59385C19.2549 7.19385 19.7933 6.03077 20.8703 5.10462C21.9472 4.15692 23.4549 3.68308 25.3933 3.68308C27.181 3.68308 28.6241 4.11385 29.7226 4.97538C30.8426 5.83692 31.4995 7.05385 31.6933 8.62615H28.398C28.2903 7.93692 27.9672 7.39846 27.4287 7.01077C26.9118 6.62308 26.2118 6.42923 25.3287 6.42923C24.4672 6.42923 23.7995 6.61231 23.3256 6.97846C22.8518 7.32308 22.6149 7.77538 22.6149 8.33538C22.6149 8.89538 22.938 9.33692 23.5841 9.66C24.2518 9.98308 25.1241 10.2738 26.201 10.5323C27.278 10.7692 28.2687 11.0492 29.1733 11.3723C30.0995 11.6738 30.8426 12.1262 31.4026 12.7292C31.9626 13.3323 32.2426 14.2154 32.2426 15.3785C32.2641 16.8431 31.6933 18.06 30.5303 19.0292C29.3887 19.9985 27.8272 20.4831 25.8457 20.4831Z" fill="black"/>
<path d="M42.1017 20.0954C40.5294 20.0954 39.2802 19.7185 38.354 18.9646C37.4279 18.1892 36.9648 16.8215 36.9648 14.8615V6.94615H34.2186V4.07077H36.9648L37.3848 0H40.3894V4.07077H44.9125V6.94615H40.3894V14.8615C40.3894 15.7446 40.5725 16.3585 40.9386 16.7031C41.3263 17.0262 41.9833 17.1877 42.9094 17.1877H44.7509V20.0954H42.1017Z" fill="black"/>
<path d="M53.8713 20.4831C52.5144 20.4831 51.3944 20.2569 50.5113 19.8046C49.6282 19.3523 48.9713 18.76 48.5405 18.0277C48.1098 17.2738 47.8944 16.4554 47.8944 15.5723C47.8944 14.0215 48.4975 12.7938 49.7036 11.8892C50.9098 10.9846 52.6328 10.5323 54.8728 10.5323H59.0728V10.2415C59.0728 8.99231 58.7282 8.05539 58.039 7.43077C57.3713 6.80615 56.499 6.49385 55.4221 6.49385C54.4744 6.49385 53.6452 6.73077 52.9344 7.20462C52.2452 7.65692 51.8252 8.33539 51.6744 9.24H48.2498C48.3575 8.07692 48.7452 7.08615 49.4128 6.26769C50.1021 5.42769 50.9636 4.79231 51.9975 4.36154C53.0528 3.90923 54.2052 3.68308 55.4544 3.68308C57.6944 3.68308 59.4282 4.27538 60.6559 5.46C61.8836 6.62308 62.4975 8.21692 62.4975 10.2415V20.0954H59.5252L59.2344 17.3492C58.7821 18.2323 58.1252 18.9754 57.2636 19.5785C56.4021 20.1815 55.2713 20.4831 53.8713 20.4831ZM54.5498 17.7046C55.4759 17.7046 56.2513 17.4892 56.8759 17.0585C57.5221 16.6062 58.0175 16.0138 58.3621 15.2815C58.7282 14.5492 58.9544 13.7415 59.0405 12.8585H55.2282C53.8713 12.8585 52.9021 13.0954 52.3205 13.5692C51.7605 14.0431 51.4805 14.6354 51.4805 15.3462C51.4805 16.0785 51.7498 16.66 52.2882 17.0908C52.8482 17.5 53.6021 17.7046 54.5498 17.7046Z" fill="black"/>
<path d="M74.0828 20.4831C72.5105 20.4831 71.0997 20.1277 69.8505 19.4169C68.6228 18.7062 67.6536 17.7262 66.9428 16.4769C66.2536 15.2062 65.909 13.7415 65.909 12.0831C65.909 10.4246 66.2536 8.97077 66.9428 7.72154C67.6536 6.45077 68.6228 5.46 69.8505 4.74923C71.0997 4.03846 72.5105 3.68308 74.0828 3.68308C76.0643 3.68308 77.7228 4.2 79.0582 5.23385C80.4151 6.26769 81.2874 7.66769 81.6751 9.43385H78.089C77.8736 8.55077 77.3997 7.86154 76.6674 7.36615C75.9351 6.87077 75.0736 6.62308 74.0828 6.62308C73.2428 6.62308 72.4674 6.83846 71.7566 7.26923C71.0459 7.67846 70.4751 8.29231 70.0443 9.11077C69.6136 9.90769 69.3982 10.8985 69.3982 12.0831C69.3982 13.2677 69.6136 14.2692 70.0443 15.0877C70.4751 15.8846 71.0459 16.4985 71.7566 16.9292C72.4674 17.36 73.2428 17.5754 74.0828 17.5754C75.0736 17.5754 75.9351 17.3277 76.6674 16.8323C77.3997 16.3369 77.8736 15.6369 78.089 14.7323H81.6751C81.309 16.4554 80.4474 17.8446 79.0905 18.9C77.7336 19.9554 76.0643 20.4831 74.0828 20.4831Z" fill="black"/>
</svg>
