<svg width="11" height="11" viewBox="0 0 11 11" fill="none" xmlns="http://www.w3.org/2000/svg">
<path d="M10.8868 4.14708C10.8174 3.94879 10.6319 3.81213 10.4188 3.80215H7.0684L6.00478 0.572374C5.92904 0.35584 5.71626 0.215012 5.48361 0.227446C5.25586 0.225839 5.05342 0.369749 4.98371 0.582826L3.92009 3.8126H0.580329C0.355993 3.81109 0.155842 3.95082 0.0834524 4.15949C0.0110631 4.36816 0.0826807 4.59894 0.261244 4.73241L2.97347 6.74971L1.90985 10.0004C1.83472 10.2138 1.91067 10.4504 2.09683 10.5828C2.28299 10.7152 2.53541 10.7121 2.7182 10.5753L5.55806 8.4848L8.40856 10.5753C8.49734 10.6417 8.60546 10.6783 8.71701 10.6798C8.88682 10.6821 9.04714 10.603 9.14665 10.4678C9.24616 10.3325 9.27238 10.1581 9.21691 10.0004L8.15329 6.74971L10.8123 4.72195C10.9557 4.56388 10.9853 4.3354 10.8868 4.14708Z" fill="#0F213A"/>
</svg>
