<svg width="46" height="49" viewBox="0 0 46 49" fill="none" xmlns="http://www.w3.org/2000/svg">
<path d="M11.75 8.08179C10.7083 8.08179 9.82333 8.44679 9.095 9.17679C8.365 9.90512 8 10.7901 8 11.8318C8 12.8735 8.365 13.7585 9.095 14.4868C9.82333 15.2168 10.7083 15.5818 11.75 15.5818C12.7917 15.5818 13.6767 15.2168 14.405 14.4868C15.135 13.7585 15.5 12.8735 15.5 11.8318C15.5 10.7901 15.135 9.90512 14.405 9.17679C13.6767 8.44679 12.7917 8.08179 11.75 8.08179ZM11.75 33.0818C10.7083 33.0818 9.82333 33.4468 9.095 34.1768C8.365 34.9051 8 35.7901 8 36.8318C8 37.8735 8.365 38.7585 9.095 39.4868C9.82333 40.2168 10.7083 40.5818 11.75 40.5818C12.7917 40.5818 13.6767 40.2168 14.405 39.4868C15.135 38.7585 15.5 37.8735 15.5 36.8318C15.5 35.7901 15.135 34.9051 14.405 34.1768C13.6767 33.4468 12.7917 33.0818 11.75 33.0818ZM3 0.581787H43C43.7083 0.581787 44.3017 0.820954 44.78 1.29929C45.26 1.77929 45.5 2.37345 45.5 3.08179V20.5818C45.5 21.2901 45.26 21.8835 44.78 22.3618C44.3017 22.8418 43.7083 23.0818 43 23.0818H3C2.29167 23.0818 1.69833 22.8418 1.22 22.3618C0.74 21.8835 0.5 21.2901 0.5 20.5818V3.08179C0.5 2.37345 0.74 1.77929 1.22 1.29929C1.69833 0.820954 2.29167 0.581787 3 0.581787ZM5.5 5.58179V18.0818H40.5V5.58179H5.5ZM3 25.5818H43C43.7083 25.5818 44.3017 25.821 44.78 26.2993C45.26 26.7793 45.5 27.3735 45.5 28.0818V45.5818C45.5 46.2901 45.26 46.8835 44.78 47.3618C44.3017 47.8418 43.7083 48.0818 43 48.0818H3C2.29167 48.0818 1.69833 47.8418 1.22 47.3618C0.74 46.8835 0.5 46.2901 0.5 45.5818V28.0818C0.5 27.3735 0.74 26.7793 1.22 26.2993C1.69833 25.821 2.29167 25.5818 3 25.5818ZM5.5 30.5818V43.0818H40.5V30.5818H5.5Z" fill="#125B50"/>
</svg>
