<svg width="56" height="41" viewBox="0 0 56 41" fill="none" xmlns="http://www.w3.org/2000/svg">
<path d="M14.25 40.0818C10.4167 40.0818 7.16667 38.7485 4.5 36.0818C1.83333 33.4151 0.5 30.1651 0.5 26.3318C0.5 23.0818 1.51083 20.2168 3.5325 17.7368C5.5525 15.2585 8.08333 13.6651 11.125 12.9568C12.1667 9.20679 14.2292 6.12345 17.3125 3.70679C20.3958 1.29012 23.9583 0.0817871 28 0.0817871C32.9583 0.0817871 37.115 1.80012 40.47 5.23679C43.8233 8.67512 45.5 12.7901 45.5 17.5818C48.625 17.9151 51.0733 19.2068 52.845 21.4568C54.615 23.7068 55.5 26.1443 55.5 28.7693C55.5 31.8943 54.4067 34.561 52.22 36.7693C50.0317 38.9776 47.375 40.0818 44.25 40.0818H14.25ZM14.25 35.0818H44.25C46 35.0818 47.4792 34.4776 48.6875 33.2693C49.8958 32.061 50.5 30.5818 50.5 28.8318C50.5 27.0818 49.8958 25.6026 48.6875 24.3943C47.4792 23.186 46 22.5818 44.25 22.5818H40.5V17.5818C40.5 14.1235 39.2817 11.1751 36.845 8.73679C34.4067 6.30012 31.4583 5.08179 28 5.08179C25.375 5.08179 23.0417 5.80012 21 7.23679C18.9583 8.67512 17.4583 10.5193 16.5 12.7693C19.75 13.311 22.4792 14.8418 24.6875 17.3618C26.8958 19.8835 28 22.8735 28 26.3318H23C23 23.9151 22.1458 21.8526 20.4375 20.1443C18.7292 18.436 16.6667 17.5818 14.25 17.5818C11.8333 17.5818 9.77083 18.436 8.0625 20.1443C6.35417 21.8526 5.5 23.9151 5.5 26.3318C5.5 28.7485 6.35417 30.811 8.0625 32.5193C9.77083 34.2276 11.8333 35.0818 14.25 35.0818Z" fill="#125B50"/>
</svg>
