<svg width="17" height="20" viewBox="0 0 17 20" fill="none" xmlns="http://www.w3.org/2000/svg">
<path d="M14.7666 6.5H10.2666V2V1.5H9.7666H2.7666H2.2666V2V18V18.5H2.7666H14.7666H15.2666V18V7V6.5H14.7666ZM12.2666 14.5V15.5H5.2666V14.5H12.2666ZM12.2666 10.5V11.5H5.2666V10.5H12.2666ZM2.7666 19.5C2.35014 19.5 2.00638 19.3577 1.70815 19.0594C1.40908 18.7604 1.2666 18.4162 1.2666 18V2C1.2666 1.58379 1.40908 1.23962 1.70815 0.940553C2.00638 0.64233 2.35014 0.5 2.7666 0.5H10.5595L16.2666 6.20711V18C16.2666 18.4162 16.1244 18.7603 15.8263 19.0592C15.5273 19.3577 15.1831 19.5 14.7666 19.5H2.7666Z" fill="#FAF5E4" stroke="#FAF5E4"/>
</svg>
