<svg width="21" height="18" viewBox="0 0 21 18" fill="none" xmlns="http://www.w3.org/2000/svg">
<path d="M6.7666 18V16H8.7666V14H2.7666C2.2166 14 1.74593 13.8043 1.3546 13.413C0.962602 13.021 0.766602 12.55 0.766602 12V2C0.766602 1.45 0.962602 0.979 1.3546 0.587C1.74593 0.195667 2.2166 0 2.7666 0H18.7666C19.3166 0 19.7876 0.195667 20.1796 0.587C20.5709 0.979 20.7666 1.45 20.7666 2V12C20.7666 12.55 20.5709 13.021 20.1796 13.413C19.7876 13.8043 19.3166 14 18.7666 14H12.7666V16H14.7666V18H6.7666ZM2.7666 12H18.7666V2H2.7666V12Z" fill="#FAF5E4"/>
</svg>
