<svg width="104" height="26" viewBox="0 0 104 26" fill="none" xmlns="http://www.w3.org/2000/svg">
<path d="M10.2211 25.9776C8.23143 25.9776 6.45976 25.5406 4.90615 24.6665C3.37979 23.765 2.18051 22.5221 1.30831 20.9378C0.436102 19.3535 0 17.5096 0 15.4063C0 13.2756 0.422474 11.4045 1.26742 9.79283C2.13963 8.18118 3.33891 6.92464 4.86527 6.02321C6.41888 5.12177 8.2178 4.67106 10.262 4.67106C12.2517 4.67106 13.9825 5.12177 15.4544 6.02321C16.9262 6.89732 18.071 8.07191 18.8887 9.54699C19.7064 11.0221 20.1152 12.6474 20.1152 14.4229C20.1152 14.6961 20.1016 14.9966 20.0743 15.3243C20.0743 15.6248 20.0607 15.9663 20.0334 16.3487H4.252C4.38828 18.3155 5.0288 19.8179 6.17357 20.8559C7.3456 21.8666 8.69479 22.3719 10.2211 22.3719C11.4477 22.3719 12.4698 22.0987 13.2875 21.5524C14.1324 20.9788 14.7593 20.2139 15.1682 19.2579H19.5019C18.9568 21.17 17.8666 22.768 16.2312 24.0518C14.6231 25.3357 12.6197 25.9776 10.2211 25.9776ZM10.2211 8.23581C8.77656 8.23581 7.49551 8.67287 6.378 9.54699C5.26048 10.3938 4.57907 11.6776 4.33377 13.3986H15.7814C15.6997 11.8142 15.1409 10.5577 14.1052 9.62893C13.0694 8.70018 11.7748 8.23581 10.2211 8.23581Z" fill="#FAF5E4"/>
<path d="M32.707 25.9776C30.1449 25.9776 28.0326 25.3494 26.3699 24.0928C24.7073 22.8363 23.7533 21.17 23.508 19.094H27.8826C28.1007 20.0227 28.6186 20.8285 29.4363 21.5114C30.254 22.167 31.3306 22.4948 32.6661 22.4948C33.9744 22.4948 34.9284 22.2217 35.5281 21.6753C36.1277 21.129 36.4275 20.5008 36.4275 19.7905C36.4275 18.7525 36.0051 18.056 35.1601 17.7008C34.3424 17.3184 33.1976 16.977 31.7258 16.6765C30.581 16.4307 29.4363 16.1029 28.2915 15.6931C27.174 15.2834 26.2336 14.7097 25.4705 13.9722C24.7345 13.2073 24.3666 12.183 24.3666 10.8991C24.3666 9.12359 25.048 7.64851 26.4108 6.47392C27.7736 5.27201 29.6816 4.67106 32.1346 4.67106C34.3969 4.67106 36.2231 5.21738 37.6132 6.31002C39.0305 7.40267 39.8618 8.94603 40.1071 10.9401H35.9369C35.8006 10.066 35.3918 9.38309 34.7104 8.8914C34.0562 8.39971 33.1704 8.15386 32.0529 8.15386C30.9626 8.15386 30.1177 8.38605 29.518 8.85042C28.9184 9.28748 28.6186 9.86112 28.6186 10.5713C28.6186 11.2816 29.0274 11.8415 29.8451 12.2513C30.6901 12.661 31.7939 13.0298 33.1568 13.3576C34.5196 13.6581 35.7734 14.0132 36.9181 14.4229C38.0902 14.8053 39.0305 15.379 39.7392 16.1438C40.4478 16.9087 40.8022 18.0286 40.8022 19.5037C40.8294 21.3612 40.1071 22.9046 38.6353 24.1338C37.1907 25.363 35.2146 25.9776 32.707 25.9776Z" fill="#FAF5E4"/>
<path d="M53.2787 25.4859C51.289 25.4859 49.7081 25.0079 48.5361 24.0518C47.364 23.0685 46.778 21.3339 46.778 18.8481V8.80945H43.3028V5.16275H46.778L47.3095 0H51.1118V5.16275H56.8356V8.80945H51.1118V18.8481C51.1118 19.9681 51.3435 20.7466 51.8068 21.1837C52.2975 21.5934 53.1288 21.7983 54.3008 21.7983H56.6312V25.4859H53.2787Z" fill="#FAF5E4"/>
<path d="M68.1728 25.9776C66.4557 25.9776 65.0383 25.6908 63.9208 25.1172C62.8033 24.5435 61.972 23.7923 61.4268 22.8636C60.8817 21.9075 60.6092 20.8695 60.6092 19.7496C60.6092 17.7828 61.3723 16.2258 62.8987 15.0785C64.425 13.9312 66.6056 13.3576 69.4402 13.3576H74.7552V12.9888C74.7552 11.4045 74.3191 10.2162 73.4469 9.42406C72.602 8.6319 71.4981 8.23581 70.1353 8.23581C68.936 8.23581 67.8866 8.53629 66.9871 9.13724C66.1149 9.71088 65.5835 10.5713 65.3927 11.7186H61.0589C61.1952 10.2435 61.6858 8.98701 62.5307 7.94899C63.4029 6.88366 64.4932 6.07784 65.8015 5.53152C67.1371 4.95788 68.5953 4.67106 70.1761 4.67106C73.0108 4.67106 75.205 5.42225 76.7586 6.92464C78.3122 8.39971 79.089 10.4211 79.089 12.9888V25.4859H75.3276L74.9596 22.0031C74.3873 23.1231 73.5559 24.0655 72.4657 24.8304C71.3754 25.5952 69.9445 25.9776 68.1728 25.9776ZM69.0314 22.4539C70.2034 22.4539 71.1846 22.1807 71.9751 21.6344C72.7928 21.0607 73.4197 20.3095 73.8558 19.3808C74.3191 18.452 74.6053 17.4277 74.7143 16.3077H69.89C68.1728 16.3077 66.9463 16.6082 66.2104 17.2092C65.5017 17.8101 65.1473 18.5613 65.1473 19.4627C65.1473 20.3915 65.4881 21.129 66.1695 21.6753C66.8781 22.1944 67.8321 22.4539 69.0314 22.4539Z" fill="#FAF5E4"/>
<path d="M93.7499 25.9776C91.7602 25.9776 89.9749 25.5269 88.3941 24.6255C86.8404 23.7241 85.6139 22.4812 84.7144 20.8968C83.8422 19.2852 83.4061 17.4277 83.4061 15.3243C83.4061 13.221 83.8422 11.3772 84.7144 9.79283C85.6139 8.18118 86.8404 6.92464 88.3941 6.02321C89.9749 5.12177 91.7602 4.67106 93.7499 4.67106C96.2575 4.67106 98.3563 5.32665 100.046 6.63782C101.763 7.94899 102.867 9.72454 103.358 11.9645H98.8196C98.5471 10.8445 97.9474 9.97039 97.0207 9.34212C96.094 8.71384 95.0037 8.39971 93.7499 8.39971C92.6869 8.39971 91.7057 8.67287 90.8063 9.21919C89.9068 9.7382 89.1845 10.5167 88.6394 11.5547C88.0942 12.5654 87.8217 13.822 87.8217 15.3243C87.8217 16.8267 88.0942 18.0969 88.6394 19.1349C89.1845 20.1456 89.9068 20.9242 90.8063 21.4705C91.7057 22.0168 92.6869 22.29 93.7499 22.29C95.0037 22.29 96.094 21.9758 97.0207 21.3476C97.9474 20.7193 98.5471 19.8315 98.8196 18.6842H103.358C102.894 20.8695 101.804 22.6314 100.087 23.9699C98.3699 25.3084 96.2575 25.9776 93.7499 25.9776Z" fill="#FAF5E4"/>
</svg>
