<svg width="51" height="50" viewBox="0 0 51 50" fill="none" xmlns="http://www.w3.org/2000/svg">
<circle cx="25.5" cy="25" r="25" fill="#194F94"/>
<path d="M21.5933 21.8805C21.6656 22.071 21.6407 31.9995 21.5678 32.0803C21.495 32.1609 18.4373 32.1887 18.2907 32.1101C18.2171 32.0707 18.1701 21.8824 18.2432 21.8092C18.2569 21.7954 19.0081 21.7842 19.9124 21.7842H21.5567L21.5933 21.8805Z" fill="white"/>
<path d="M31.1187 21.6476C32.1989 21.8676 33.1979 22.7117 33.636 23.7745C33.8083 24.1928 33.9176 24.5598 33.9658 24.8823C33.9843 25.0063 34.0154 25.2091 34.0348 25.333C34.0906 25.6881 34.0874 32.0479 34.0315 32.1039C33.9647 32.1708 30.8028 32.1685 30.7473 32.1015C30.7209 32.0697 30.7023 31.0651 30.6909 29.0503C30.6714 25.6372 30.6808 25.7509 30.3617 25.0326C29.9774 24.1674 28.6504 23.9497 27.7553 24.6052C27.5797 24.7337 27.2341 25.1421 27.187 25.2767C27.1762 25.3076 27.1318 25.409 27.0885 25.502C27.0106 25.6689 27.0095 25.7091 26.9987 28.8719C26.9879 32.0121 26.9863 32.0737 26.9139 32.1125C26.8084 32.169 23.711 32.1458 23.6533 32.088C23.5805 32.015 23.5815 21.8671 23.6543 21.8207C23.6883 21.799 24.3538 21.7884 25.3413 21.7939L26.9722 21.8029L26.9909 22.4758C27.0128 23.2625 27.0196 23.2726 27.2858 22.9141C28.1073 21.8074 29.5547 21.3292 31.1187 21.6476Z" fill="white"/>
<path d="M20.4308 16.8272C22.0341 17.1318 22.335 19.3646 20.87 20.0858C19.7719 20.6263 18.4256 20.1348 18.1042 19.0761C17.6831 17.6891 18.8797 16.5325 20.4308 16.8272Z" fill="white"/>
</svg>
