<svg width="50" height="49" viewBox="0 0 50 49" fill="none" xmlns="http://www.w3.org/2000/svg">
<path d="M30.0792 49C30.4672 49 30.8451 48.8824 31.1586 48.6641C31.4721 48.4459 31.7049 48.1382 31.8236 47.7855L33.8392 41.804C34.6857 41.4085 35.4956 40.964 36.2689 40.4635L42.7041 41.7865C43.0835 41.8639 43.4788 41.8242 43.8331 41.6733C44.1874 41.5223 44.4825 41.2678 44.6756 40.9465L49.7549 32.55C49.9488 32.2289 50.031 31.8572 49.9895 31.4886C49.948 31.1199 49.785 30.7734 49.524 30.499L45.1081 25.844C45.1724 24.9514 45.1724 24.0556 45.1081 23.163L49.524 18.501C49.785 18.2266 49.948 17.8801 49.9895 17.5114C50.031 17.1428 49.9488 16.7711 49.7549 16.45L44.6756 8.05C44.4819 7.72931 44.1867 7.47556 43.8324 7.32525C43.4781 7.17494 43.0831 7.13582 42.7041 7.2135L36.2689 8.5365C35.4993 8.0395 34.6857 7.5915 33.8429 7.196L31.8236 1.2145C31.7049 0.861771 31.4721 0.554124 31.1586 0.335869C30.8451 0.117613 30.4672 1.16754e-05 30.0792 0H19.9208C19.5328 1.16754e-05 19.1549 0.117613 18.8414 0.335869C18.5279 0.554124 18.2951 0.861771 18.1764 1.2145L16.1645 7.1925C15.3202 7.5868 14.5059 8.03706 13.7275 8.54L7.29595 7.2135C6.91653 7.13613 6.52119 7.17578 6.16687 7.32674C5.81255 7.4777 5.51755 7.73217 5.32436 8.0535L0.245114 16.45C0.0511594 16.7711 -0.0309938 17.1428 0.0105002 17.5114C0.0519942 17.8801 0.214991 18.2266 0.475989 18.501L4.89192 23.163C4.82796 24.0533 4.82796 24.9467 4.89192 25.837L0.475989 30.499C0.214991 30.7734 0.0519942 31.1199 0.0105002 31.4886C-0.0309938 31.8572 0.0511594 32.2289 0.245114 32.55L5.32436 40.95C5.51808 41.2707 5.81331 41.5244 6.16759 41.6747C6.52186 41.8251 6.91692 41.8642 7.29595 41.7865L13.7275 40.46C14.5044 40.9605 15.3179 41.412 16.1645 41.8075L18.18 47.7855C18.2984 48.1371 18.5301 48.4439 18.8421 48.6621C19.1541 48.8802 19.5304 48.9985 19.9171 49H30.0756H30.0792ZM28.738 45.5H21.262L19.1805 39.3155L17.7769 38.661C17.0869 38.3385 16.4208 37.9713 15.7833 37.562L14.486 36.722L7.83099 38.094L4.09302 31.906L8.65555 27.083L8.5456 25.599C8.49295 24.8672 8.49295 24.1328 8.5456 23.401L8.65555 21.917L4.08569 17.094L7.82733 10.906L14.4824 12.2745L15.7797 11.438C16.4172 11.0287 17.0833 10.6615 17.7733 10.339L19.1768 9.6845L21.262 3.5H28.7453L30.8342 9.688L32.2341 10.339C32.9233 10.6607 33.5882 11.0279 34.224 11.438L35.5176 12.2745L42.1763 10.906L45.9143 17.094L41.3481 21.917L41.4581 23.401C41.5109 24.134 41.5109 24.8695 41.4581 25.6025L41.3481 27.0865L45.918 31.906L42.1763 38.094L35.5176 36.729L34.224 37.562C33.5883 37.9721 32.9234 38.3394 32.2341 38.661L30.8342 39.312L28.7416 45.5H28.738ZM25 35C27.9158 35 30.7122 33.8938 32.774 31.9246C34.8357 29.9555 35.994 27.2848 35.994 24.5C35.994 21.7152 34.8357 19.0445 32.774 17.0754C30.7122 15.1062 27.9158 14 25 14C22.0842 14 19.2878 15.1062 17.226 17.0754C15.1643 19.0445 14.006 21.7152 14.006 24.5C14.006 27.2848 15.1643 29.9555 17.226 31.9246C19.2878 33.8938 22.0842 35 25 35ZM25 31.5C23.0561 31.5 21.1919 30.7625 19.8174 29.4497C18.4428 28.137 17.6706 26.3565 17.6706 24.5C17.6706 22.6435 18.4428 20.863 19.8174 19.5503C21.1919 18.2375 23.0561 17.5 25 17.5C26.9439 17.5 28.8081 18.2375 30.1826 19.5503C31.5572 20.863 32.3294 22.6435 32.3294 24.5C32.3294 26.3565 31.5572 28.137 30.1826 29.4497C28.8081 30.7625 26.9439 31.5 25 31.5Z" fill="#125B50"/>
</svg>
