<svg width="50" height="47" viewBox="0 0 50 47" fill="none" xmlns="http://www.w3.org/2000/svg">
<path d="M25 3.61538C24.0528 3.61538 23.1444 3.99629 22.4746 4.67431C21.8048 5.35232 21.4286 6.27191 21.4286 7.23077C21.4286 8.18963 21.8048 9.10922 22.4746 9.78723C23.1444 10.4652 24.0528 10.8462 25 10.8462C25.9472 10.8462 26.8556 10.4652 27.5254 9.78723C28.1952 9.10922 28.5714 8.18963 28.5714 7.23077C28.5714 6.27191 28.1952 5.35232 27.5254 4.67431C26.8556 3.99629 25.9472 3.61538 25 3.61538V3.61538ZM17.8571 7.23077C17.8571 5.31305 18.6097 3.47388 19.9492 2.11784C21.2888 0.761811 23.1056 0 25 0C26.8944 0 28.7112 0.761811 30.0508 2.11784C31.3903 3.47388 32.1429 5.31305 32.1429 7.23077C32.1429 9.14849 31.3903 10.9877 30.0508 12.3437C28.7112 13.6997 26.8944 14.4615 25 14.4615C23.1056 14.4615 21.2888 13.6997 19.9492 12.3437C18.6097 10.9877 17.8571 9.14849 17.8571 7.23077V7.23077ZM41.9643 5.42308C41.2539 5.42308 40.5726 5.70876 40.0703 6.21727C39.5679 6.72578 39.2857 7.41547 39.2857 8.13462C39.2857 8.85376 39.5679 9.54345 40.0703 10.052C40.5726 10.5605 41.2539 10.8462 41.9643 10.8462C42.6747 10.8462 43.356 10.5605 43.8583 10.052C44.3606 9.54345 44.6429 8.85376 44.6429 8.13462C44.6429 7.41547 44.3606 6.72578 43.8583 6.21727C43.356 5.70876 42.6747 5.42308 41.9643 5.42308ZM35.7143 8.13462C35.7143 7.30375 35.8759 6.48102 36.19 5.71341C36.5041 4.94579 36.9645 4.24831 37.5449 3.6608C38.1252 3.0733 38.8142 2.60726 39.5725 2.2893C40.3308 1.97134 41.1435 1.80769 41.9643 1.80769C42.785 1.80769 43.5978 1.97134 44.3561 2.2893C45.1143 2.60726 45.8033 3.0733 46.3837 3.6608C46.9641 4.24831 47.4244 4.94579 47.7385 5.71341C48.0526 6.48102 48.2143 7.30375 48.2143 8.13462C48.2143 9.81262 47.5558 11.4219 46.3837 12.6084C45.2116 13.795 43.6219 14.4615 41.9643 14.4615C40.3067 14.4615 38.717 13.795 37.5449 12.6084C36.3728 11.4219 35.7143 9.81262 35.7143 8.13462V8.13462ZM5.35714 8.13462C5.35714 7.41547 5.63935 6.72578 6.14168 6.21727C6.64401 5.70876 7.32531 5.42308 8.03571 5.42308C8.74612 5.42308 9.42742 5.70876 9.92975 6.21727C10.4321 6.72578 10.7143 7.41547 10.7143 8.13462C10.7143 8.85376 10.4321 9.54345 9.92975 10.052C9.42742 10.5605 8.74612 10.8462 8.03571 10.8462C7.32531 10.8462 6.64401 10.5605 6.14168 10.052C5.63935 9.54345 5.35714 8.85376 5.35714 8.13462V8.13462ZM8.03571 1.80769C6.37811 1.80769 4.7884 2.47428 3.6163 3.66081C2.4442 4.84733 1.78571 6.45661 1.78571 8.13462C1.78571 9.81262 2.4442 11.4219 3.6163 12.6084C4.7884 13.795 6.37811 14.4615 8.03571 14.4615C9.69332 14.4615 11.283 13.795 12.4551 12.6084C13.6272 11.4219 14.2857 9.81262 14.2857 8.13462C14.2857 6.45661 13.6272 4.84733 12.4551 3.66081C11.283 2.47428 9.69332 1.80769 8.03571 1.80769ZM11.8768 38.8744C11.0692 39.4133 10.1325 39.7208 9.16614 39.7642C8.1998 39.8076 7.23989 39.5854 6.38827 39.121C5.53665 38.6567 4.82511 37.9677 4.32916 37.127C3.83322 36.2863 3.57138 35.3253 3.57143 34.3462V22.5962C3.57143 22.3564 3.6655 22.1265 3.83294 21.957C4.00038 21.7875 4.22749 21.6923 4.46429 21.6923H11.6625C11.8254 20.3687 12.3484 19.117 13.1732 18.0769H4.46429C3.28028 18.0769 2.14478 18.5531 1.30756 19.4006C0.470343 20.2481 4.00701e-07 21.3976 4.00701e-07 22.5962V34.3462C-0.0004602 35.9027 0.396178 37.433 1.1515 38.7888C1.90681 40.1446 2.99521 41.2799 4.31126 42.0849C5.62731 42.8898 7.12641 43.3371 8.66335 43.3833C10.2003 43.4296 11.723 43.0732 13.0839 42.3488C12.5262 41.2521 12.12 40.0831 11.8768 38.8744V38.8744ZM36.9161 42.3488C38.277 43.0732 39.7997 43.4296 41.3366 43.3833C42.8736 43.3371 44.3727 42.8898 45.6887 42.0849C47.0048 41.2799 48.0932 40.1446 48.8485 38.7888C49.6038 37.433 50.0005 35.9027 50 34.3462V22.5962C50 21.3976 49.5297 20.2481 48.6924 19.4006C47.8552 18.5531 46.7197 18.0769 45.5357 18.0769H36.8268C37.6509 19.1175 38.1738 20.369 38.3375 21.6923H45.5357C45.7725 21.6923 45.9996 21.7875 46.1671 21.957C46.3345 22.1265 46.4286 22.3564 46.4286 22.5962V34.3462C46.4286 35.3253 46.1668 36.2863 45.6708 37.127C45.1749 37.9677 44.4634 38.6567 43.6117 39.121C42.7601 39.5854 41.8002 39.8076 40.8339 39.7642C39.8675 39.7208 38.9308 39.4133 38.1232 38.8744C37.88 40.0831 37.4738 41.2521 36.9161 42.3488V42.3488ZM18.75 18.0769C17.566 18.0769 16.4305 18.5531 15.5933 19.4006C14.7561 20.2481 14.2857 21.3976 14.2857 22.5962V36.1538C14.2857 39.0304 15.4145 41.7892 17.4239 43.8232C19.4332 45.8573 22.1584 47 25 47C27.8416 47 30.5668 45.8573 32.5761 43.8232C34.5855 41.7892 35.7143 39.0304 35.7143 36.1538V22.5962C35.7143 21.3976 35.2439 20.2481 34.4067 19.4006C33.5695 18.5531 32.434 18.0769 31.25 18.0769H18.75ZM17.8571 22.5962C17.8571 22.3564 17.9512 22.1265 18.1187 21.957C18.2861 21.7875 18.5132 21.6923 18.75 21.6923H31.25C31.4868 21.6923 31.7139 21.7875 31.8813 21.957C32.0488 22.1265 32.1429 22.3564 32.1429 22.5962V36.1538C32.1429 38.0716 31.3903 39.9107 30.0508 41.2668C28.7112 42.6228 26.8944 43.3846 25 43.3846C23.1056 43.3846 21.2888 42.6228 19.9492 41.2668C18.6097 39.9107 17.8571 38.0716 17.8571 36.1538V22.5962Z" fill="#125B50"/>
</svg>
