<svg width="24" height="21" viewBox="0 0 24 21" fill="none" xmlns="http://www.w3.org/2000/svg">
<path d="M2.8814 10.8976L2.84441 10.8401L2.79995 10.7882C1.80498 9.62745 1.33337 8.37477 1.33337 7.00001C1.33337 5.32126 1.89825 3.94691 3.03235 2.81281C4.21451 1.63065 5.59313 1.05692 7.21955 1.05692C8.78571 1.05692 10.1393 1.58589 11.3243 2.67212L12.0102 3.30085L12.6867 2.66198C13.8779 1.53697 15.2104 1 16.7236 1C18.3546 1 19.7347 1.56768 20.9158 2.73236C22.0979 3.89803 22.6667 5.24723 22.6667 6.82927C22.6667 8.43529 22.2599 9.71314 21.5009 10.7252L21.4549 10.7865L21.4188 10.8541C19.77 13.9411 16.7378 16.8135 12.2005 19.4324C7.25721 15.7914 4.20432 12.9516 2.8814 10.8976Z" stroke="#E6E5E4" stroke-width="2"/>
</svg>
