<svg width="23" height="6" viewBox="0 0 23 6" fill="none" xmlns="http://www.w3.org/2000/svg">
<path d="M0.766602 6V0H2.2666V2H4.2666V0H5.7666V6H4.2666V3.5H2.2666V6H0.766602ZM8.2666 6V1.5H6.7666V0H11.2666V1.5H9.7666V6H8.2666ZM13.7666 6V1.5H12.2666V0H16.7666V1.5H15.2666V6H13.7666ZM17.7666 6V0H21.2666C21.6666 0 22.0166 0.15 22.3166 0.45C22.6166 0.75 22.7666 1.1 22.7666 1.5V2.5C22.7666 2.9 22.6166 3.25 22.3166 3.55C22.0166 3.85 21.6666 4 21.2666 4H19.2666V6H17.7666ZM19.2666 2.5H21.2666V1.5H19.2666V2.5Z" fill="#FAF5E4"/>
</svg>
