<svg width="17" height="17" viewBox="0 0 17 17" fill="none" xmlns="http://www.w3.org/2000/svg">
<path d="M3.59325 5.88048C3.66557 6.07099 3.64075 15.9995 3.56776 16.0803C3.49495 16.1609 0.43729 16.1887 0.290704 16.1101C0.217148 16.0707 0.170135 5.88236 0.243204 5.8092C0.256925 5.79542 1.00808 5.78415 1.91242 5.78415H3.5567L3.59325 5.88048Z" fill="white"/>
<path d="M13.1187 5.64765C14.1989 5.86756 15.1979 6.71166 15.636 7.7745C15.8083 8.19277 15.9176 8.55982 15.9658 8.88234C15.9843 9.00626 16.0154 9.20905 16.0348 9.33298C16.0906 9.68809 16.0874 16.0479 16.0315 16.1039C15.9647 16.1708 12.8028 16.1685 12.7473 16.1015C12.7209 16.0697 12.7023 15.0651 12.6909 13.0503C12.6714 9.63717 12.6808 9.75088 12.3617 9.03255C11.9774 8.16735 10.6504 7.94973 9.75532 8.60515C9.57968 8.73374 9.23413 9.14206 9.18701 9.27665C9.17617 9.30763 9.13182 9.40903 9.08848 9.50197C9.01058 9.66894 9.00953 9.70908 8.9987 12.8719C8.98794 16.0121 8.98632 16.0737 8.91393 16.1125C8.80843 16.169 5.71096 16.1458 5.65334 16.088C5.58053 16.015 5.58147 5.86711 5.65427 5.82069C5.68831 5.79899 6.35376 5.78844 7.34133 5.79388L8.97215 5.80293L8.9909 6.47582C9.01283 7.26253 9.01958 7.2726 9.28576 6.91407C10.1073 5.80744 11.5547 5.32919 13.1187 5.64765Z" fill="white"/>
<path d="M2.43083 0.827214C4.0341 1.13177 4.33503 3.36457 2.86999 4.08579C1.77194 4.62634 0.425557 4.13483 0.104154 3.07608C-0.316898 1.68907 0.879675 0.53253 2.43083 0.827214Z" fill="white"/>
</svg>
