<?xml version="1.0" encoding="UTF-8"?> <svg xmlns="http://www.w3.org/2000/svg" width="806" height="879" viewBox="0 0 806 879" fill="none"> <path d="M37.7894 425.659C37.7894 390.884 62.8937 362.695 93.8632 362.695H749.926C780.893 362.695 806 390.884 806 425.659V824.769C806 839.15 800.286 852.945 790.117 863.117C779.945 873.286 766.151 879 751.768 879C610.642 879 233.148 879 92.0212 879C77.6383 879 63.8441 873.286 53.6723 863.117C43.5033 852.945 37.7894 839.15 37.7894 824.769C37.7894 704.438 37.7894 425.659 37.7894 425.659Z" fill="#4E4954"></path> <mask id="mask0_2_1417" style="mask-type:alpha" maskUnits="userSpaceOnUse" x="85" y="416" width="674" height="410"> <path d="M758.315 416.653H85.4292V825.036H758.315V416.653Z" fill="#F0F0F0"></path> </mask> <g mask="url(#mask0_2_1417)"> <path d="M758.315 416.653H85.4292V825.036H758.315V416.653Z" fill="#F0F0F0"></path> <path d="M763.796 416.579H72.9672V458.237H763.796V416.579Z" fill="#808080"></path> <path d="M767.267 781.086H76.4386V826.216H767.267V781.086Z" fill="#808080"></path> </g> <path d="M327.324 327.255H163.695C73.325 327.255 0.0654297 253.996 0.0654297 163.626C0.0654297 73.2568 73.325 0 163.695 0C254.061 0 327.324 73.2568 327.324 163.626V327.255Z" fill="#36675E"></path> <path d="M82.6489 149.602C98.2432 149.602 110.885 162.244 110.885 177.841C110.885 193.436 98.2432 206.078 82.6489 206.078C67.0518 206.078 54.4095 193.436 54.4095 177.841C54.4095 162.244 67.0518 149.602 82.6489 149.602Z" fill="white"></path> <path d="M164.512 149.602C180.107 149.602 192.749 162.244 192.749 177.841C192.749 193.436 180.107 206.078 164.512 206.078C148.915 206.078 136.273 193.436 136.273 177.841C136.273 162.244 148.915 149.602 164.512 149.602Z" fill="white"></path> <path d="M246.426 149.602C262.021 149.602 274.663 162.244 274.663 177.841C274.663 193.436 262.021 206.078 246.426 206.078C230.829 206.078 218.187 193.436 218.187 177.841C218.187 162.244 230.829 149.602 246.426 149.602Z" fill="white"></path> <path d="M301.2 516.969C301.2 459.866 333.494 413.573 373.327 413.573H657.026C696.859 413.573 729.153 459.866 729.153 516.969V723.761H301.2V516.969Z" fill="#42665E"></path> <path d="M646.066 413.554H515.463H384.277C384.277 485.218 442.695 543.355 514.88 543.671H515.203H515.463H515.728C520.756 543.62 525.774 543.324 530.767 542.723C540.203 541.593 549.511 539.443 558.475 536.316C576.922 529.867 593.817 519.273 607.643 505.562C621.469 491.85 632.152 475.093 638.649 456.797C641.897 447.649 644.099 438.135 645.211 428.498C645.782 423.537 646.05 418.546 646.066 413.554Z" fill="#808080"></path> <path fill-rule="evenodd" clip-rule="evenodd" d="M515.137 423.347L555.302 483.538L515.137 543.669L475.034 483.538L515.137 423.347Z" fill="#89394E"></path> <path fill-rule="evenodd" clip-rule="evenodd" d="M555.304 484.704L603.001 413.552H507.607L555.304 484.704Z" fill="white"></path> <path fill-rule="evenodd" clip-rule="evenodd" d="M475.048 484.704L522.745 413.552H427.351L475.048 484.704Z" fill="white"></path> <path d="M311.975 723.739C246.094 723.739 192.643 669.667 192.065 603.913H192.036L192.036 483.551H312.397L311.975 723.739Z" fill="#42665E"></path> <path d="M131.641 362.298H252.432V483.089C185.72 483.089 131.641 429.007 131.641 362.298Z" fill="#E4B6A5"></path> <path fill-rule="evenodd" clip-rule="evenodd" d="M451.469 504.175C451.469 500.416 452.841 496.818 455.282 494.157C457.722 491.503 461.033 490.013 464.484 490.013C479.234 490.013 503.135 490.013 517.885 490.013C521.337 490.013 524.647 491.503 527.088 494.157C529.529 496.818 530.9 500.416 530.9 504.175C530.9 508.486 530.9 513.226 530.9 517.537C530.9 521.296 529.529 524.902 527.088 527.555C524.647 530.216 521.337 531.706 517.885 531.706C503.135 531.706 479.234 531.706 464.484 531.706C461.033 531.706 457.722 530.216 455.282 527.555C452.841 524.902 451.469 521.296 451.469 517.537C451.469 513.226 451.469 508.486 451.469 504.175Z" fill="#CA9B75"></path> <path d="M369.98 510.854H612.418V826.216H369.98V510.854Z" fill="#DEB18D"></path> <path fill-rule="evenodd" clip-rule="evenodd" d="M365.404 690.479H729.157V728.145C729.157 769.924 695.301 803.795 653.501 803.795H365.404V690.479Z" fill="#42665E"></path> <path d="M369.965 660.425C361.877 660.45 353.822 661.783 346.171 664.474C336.111 668.02 326.876 673.851 319.344 681.398C311.794 688.944 305.964 698.165 302.408 708.234C299.762 715.73 298.431 723.625 298.364 731.567V732.028C298.364 771.575 330.415 803.632 369.965 803.632V660.425Z" fill="#FAC4B3"></path> <path d="M358.133 246.705C357.394 161.13 425.921 90.5721 512.035 88.0665L512.035 88.0585L513.869 88.0258L513.869 88.0338C600.339 87.4669 671.201 156.082 672.518 242.107L672.533 243.118C673.313 328.692 604.786 399.249 518.672 401.755L518.672 401.763L516.838 401.796L516.838 401.788C430.327 402.355 359.466 333.741 358.149 247.711L358.133 246.705Z" fill="#FAC4B3"></path> <path d="M470.846 263.119C470.846 272.091 463.572 279.365 454.6 279.365C445.628 279.365 438.355 272.091 438.355 263.119C438.355 254.147 445.628 246.873 454.6 246.873C463.572 246.873 470.846 254.147 470.846 263.119Z" fill="#333037"></path> <path d="M584.146 263.119C584.146 272.091 576.872 279.365 567.9 279.365C558.928 279.365 551.655 272.091 551.655 263.119C551.655 254.147 558.928 246.873 567.9 246.873C576.872 246.873 584.146 254.147 584.146 263.119Z" fill="#333037"></path> <path d="M486.87 224.941L483.855 230.025L486.87 224.941ZM483.855 230.025L484.928 230.663L490.962 220.492L489.888 219.857L483.855 230.025ZM425.905 234.956C442.184 221.098 465.469 219.116 483.855 230.025L489.888 219.857C467.156 206.368 438.368 208.82 418.241 225.956L425.905 234.956Z" fill="#333037"></path> <path d="M535.743 226.514L538.987 231.455L535.743 226.514ZM538.987 231.455L537.944 232.142L531.453 222.257L532.496 221.574L538.987 231.455ZM597.101 233.737C580.208 220.636 556.856 219.719 538.987 231.455L532.496 221.574C554.589 207.061 583.459 208.197 604.347 224.396L597.101 233.737Z" fill="#333037"></path> <path fill-rule="evenodd" clip-rule="evenodd" d="M393.561 343.456C393.561 410.717 448.087 465.244 515.349 465.244C582.611 465.244 637.137 410.717 637.137 343.456H515.349H393.561Z" fill="#343038"></path> <path fill-rule="evenodd" clip-rule="evenodd" d="M592.502 373.495C592.502 330.828 557.914 296.239 515.247 296.239C472.58 296.239 437.992 330.828 437.992 373.495H515.247H592.502Z" fill="#343038"></path> <path d="M476.617 340.29C476.884 360.488 493.531 376.924 513.788 376.924L517.75 376.918C537.981 376.947 554.146 360.57 553.905 340.343L476.617 340.29Z" fill="white"></path> <path d="M381.519 171.901C399.176 181.729 419.992 187.439 442.288 187.527H558.594H674.381C674.381 130.125 622.593 83.5671 558.594 83.3152H558.078H442.807H326.501C326.501 109.269 337.093 133.008 354.614 151.253V228.027H354.618C354.746 267.068 366.697 299.171 381.423 299.171V228.027H381.519V171.901ZM647.571 237.587V280.914C662.298 280.914 674.249 261.362 674.377 237.587H674.381V187.527H647.475V237.587H647.571Z" fill="#343038"></path> <path d="M354.381 147.839V303.521C354.381 325.981 372.589 344.187 395.048 344.187V147.839H354.381Z" fill="#343038"></path> <path d="M636.591 182.667H674.066V303.522C674.066 325.981 657.289 344.187 636.591 344.187V182.667Z" fill="#343038"></path> </svg> 