<svg width="50" height="51" viewBox="0 0 50 51" fill="none" xmlns="http://www.w3.org/2000/svg">
<path d="M5 30.0818C3.625 30.0818 2.44833 29.5918 1.47 28.6118C0.49 27.6335 0 26.4568 0 25.0818C0 23.7068 0.49 22.5293 1.47 21.5493C2.44833 20.571 3.625 20.0818 5 20.0818C6.375 20.0818 7.55167 20.571 8.53 21.5493C9.51 22.5293 10 23.7068 10 25.0818C10 26.4568 9.51 27.6335 8.53 28.6118C7.55167 29.5918 6.375 30.0818 5 30.0818ZM9.125 44.3318L5.625 40.8318L16.5 29.9568L20 33.4568L9.125 44.3318ZM16.625 20.0818L5.75 9.20679L9.25 5.70679L20.125 16.5818L16.625 20.0818ZM25 50.0818C23.625 50.0818 22.4483 49.5926 21.47 48.6143C20.49 47.6343 20 46.4568 20 45.0818C20 43.7068 20.49 42.5293 21.47 41.5493C22.4483 40.571 23.625 40.0818 25 40.0818C26.375 40.0818 27.5525 40.571 28.5325 41.5493C29.5108 42.5293 30 43.7068 30 45.0818C30 46.4568 29.5108 47.6343 28.5325 48.6143C27.5525 49.5926 26.375 50.0818 25 50.0818ZM25 10.0818C23.625 10.0818 22.4483 9.59179 21.47 8.61179C20.49 7.63345 20 6.45679 20 5.08179C20 3.70679 20.49 2.52929 21.47 1.54929C22.4483 0.570953 23.625 0.0817871 25 0.0817871C26.375 0.0817871 27.5525 0.570953 28.5325 1.54929C29.5108 2.52929 30 3.70679 30 5.08179C30 6.45679 29.5108 7.63345 28.5325 8.61179C27.5525 9.59179 26.375 10.0818 25 10.0818ZM33.375 20.2068L29.875 16.5818L40.875 5.70679L44.375 9.20679L33.375 20.2068ZM40.875 44.3318L30 33.4568L33.5 29.9568L44.375 40.8318L40.875 44.3318ZM45 30.0818C43.625 30.0818 42.4475 29.5918 41.4675 28.6118C40.4892 27.6335 40 26.4568 40 25.0818C40 23.7068 40.4892 22.5293 41.4675 21.5493C42.4475 20.571 43.625 20.0818 45 20.0818C46.375 20.0818 47.5525 20.571 48.5325 21.5493C49.5108 22.5293 50 23.7068 50 25.0818C50 26.4568 49.5108 27.6335 48.5325 28.6118C47.5525 29.5918 46.375 30.0818 45 30.0818Z" fill="#125B50"/>
</svg>
