<svg width="50" height="51" viewBox="0 0 50 51" fill="none" xmlns="http://www.w3.org/2000/svg">
<path d="M25 50.0818C21.5417 50.0818 18.2917 49.4251 15.25 48.1118C12.2083 46.8001 9.5625 45.0193 7.3125 42.7693C5.0625 40.5193 3.28167 37.8735 1.97 34.8318C0.656667 31.7901 0 28.5401 0 25.0818C0 21.6235 0.656667 18.3735 1.97 15.3318C3.28167 12.2901 5.0625 9.64429 7.3125 7.39429C9.5625 5.14429 12.2083 3.36262 15.25 2.04929C18.2917 0.73762 21.5417 0.0817871 25 0.0817871C28.4583 0.0817871 31.7083 0.73762 34.75 2.04929C37.7917 3.36262 40.4375 5.14429 42.6875 7.39429C44.9375 9.64429 46.7183 12.2901 48.03 15.3318C49.3433 18.3735 50 21.6235 50 25.0818C50 28.5401 49.3433 31.7901 48.03 34.8318C46.7183 37.8735 44.9375 40.5193 42.6875 42.7693C40.4375 45.0193 37.7917 46.8001 34.75 48.1118C31.7083 49.4251 28.4583 50.0818 25 50.0818ZM22.5 44.9568V40.0818C21.125 40.0818 19.9483 39.5926 18.97 38.6143C17.99 37.6343 17.5 36.4568 17.5 35.0818V32.5818L5.5 20.5818C5.375 21.3318 5.26 22.0818 5.155 22.8318C5.05167 23.5818 5 24.3318 5 25.0818C5 30.1235 6.65667 34.5401 9.97 38.3318C13.2817 42.1235 17.4583 44.3318 22.5 44.9568ZM39.75 38.5818C40.5833 37.6651 41.3333 36.6751 42 35.6118C42.6667 34.5501 43.2192 33.446 43.6575 32.2993C44.0942 31.1543 44.4275 29.9776 44.6575 28.7693C44.8858 27.561 45 26.3318 45 25.0818C45 20.9985 43.865 17.2693 41.595 13.8943C39.3233 10.5193 36.2917 8.08179 32.5 6.58179V7.58179C32.5 8.95679 32.0108 10.1335 31.0325 11.1118C30.0525 12.0918 28.875 12.5818 27.5 12.5818H22.5V17.5818C22.5 18.2901 22.2608 18.8835 21.7825 19.3618C21.3025 19.8418 20.7083 20.0818 20 20.0818H15V25.0818H30C30.7083 25.0818 31.3025 25.321 31.7825 25.7993C32.2608 26.2793 32.5 26.8735 32.5 27.5818V35.0818H35C36.0833 35.0818 37.0625 35.4043 37.9375 36.0493C38.8125 36.696 39.4167 37.5401 39.75 38.5818Z" fill="#125B50"/>
</svg>
