<svg width="22" height="21" viewBox="0 0 22 21" fill="none" xmlns="http://www.w3.org/2000/svg">
<path d="M20.2666 2V7.5H19.2666V2V1.5H18.7666H2.7666H2.2666V2V15.175V16.3821L3.12015 15.5286L4.14871 14.5H13.2666V15.5H4.7666H4.55949L4.41305 15.6464L1.2666 18.7929V2C1.2666 1.58379 1.40908 1.23962 1.70815 0.940553C2.00638 0.64233 2.35014 0.5 2.7666 0.5H18.7666C19.1829 0.5 19.527 0.642223 19.8259 0.940429C20.1243 1.23939 20.2666 1.5836 20.2666 2ZM19.0666 14.5H20.4576L18.2666 18.882V16V15.5H17.7666H16.2666V10.5H20.0108L18.6064 13.8044L18.3108 14.5H19.0666Z" fill="#FF6363" stroke="#FAF5E4"/>
</svg>
