<svg width="23" height="22" viewBox="0 0 23 22" fill="none" xmlns="http://www.w3.org/2000/svg">
<path d="M10.8155 0.845018C11.1149 -0.0762926 12.4183 -0.0762912 12.7177 0.845019L14.6853 6.90075C14.8192 7.31277 15.2031 7.59173 15.6363 7.59173H22.0037C22.9724 7.59173 23.3752 8.83135 22.5915 9.40075L17.4402 13.1434C17.0897 13.398 16.943 13.8494 17.0769 14.2614L19.0445 20.3172C19.3439 21.2385 18.2894 22.0046 17.5057 21.4352L12.3544 17.6925C12.0039 17.4379 11.5293 17.4379 11.1788 17.6925L6.0275 21.4352C5.24379 22.0046 4.18931 21.2385 4.48866 20.3172L6.45629 14.2614C6.59016 13.8494 6.44351 13.398 6.09302 13.1434L0.941707 9.40075C0.157993 8.83135 0.56077 7.59173 1.52949 7.59173H7.89686C8.33009 7.59173 8.71405 7.31277 8.84792 6.90075L10.8155 0.845018Z" fill="#F8B400"/>
</svg>
