<svg width="49" height="55" viewBox="0 0 49 55" fill="none" xmlns="http://www.w3.org/2000/svg">
<path d="M12.355 6.90396C13.914 4.23688 16.3385 2.16011 19.2408 1.00562C22.1431 -0.148869 25.3558 -0.314428 28.3652 0.535411C31.3746 1.38525 34.0071 3.20142 35.8418 5.69361C37.6764 8.1858 38.6074 11.2101 38.4859 14.2831C38.3644 17.3562 37.1974 20.3005 35.1714 22.6454C33.1455 24.9904 30.3776 26.6006 27.3101 27.2186C24.2426 27.8367 21.0527 27.4269 18.2503 26.0549C15.4479 24.6828 13.1947 22.4276 11.851 19.6498C10.9532 20.2948 9.86933 20.6416 8.757 20.6398H7.007V21.5163C7.007 22.1694 7.259 22.7641 7.672 23.2144C8.02493 22.8226 8.49102 22.5456 9.0082 22.4205C9.52539 22.2953 10.0691 22.3278 10.567 22.5137C11.0649 22.6996 11.4934 23.03 11.7953 23.461C12.0972 23.892 12.2582 24.4031 12.257 24.9262C12.2567 25.2855 12.18 25.6407 12.0318 25.9692C11.8835 26.2976 11.667 26.592 11.3961 26.8335C11.1252 27.0749 10.806 27.2581 10.4588 27.3712C10.1116 27.4844 9.74412 27.525 9.38 27.4905C7.80365 27.4362 6.31035 26.783 5.21478 25.6685C4.1192 24.5541 3.50694 23.0654 3.507 21.5163V8.61922C3.507 8.1634 3.69137 7.72624 4.01956 7.40392C4.34775 7.0816 4.79287 6.90053 5.257 6.90053H12.257L12.355 6.90396ZM14.007 14.1603C14.116 16.8577 15.2977 19.4056 17.2983 21.2568C19.2989 23.108 21.9589 24.115 24.707 24.0614C27.4552 24.0079 30.0724 22.8981 31.9966 20.9704C33.9209 19.0427 34.9987 16.4508 34.9987 13.7513C34.9987 11.0517 33.9209 8.45982 31.9966 6.53213C30.0724 4.60443 27.4552 3.49465 24.707 3.4411C21.9589 3.38755 19.2989 4.39449 17.2983 6.24571C15.2977 8.09693 14.116 10.6448 14.007 13.3422V14.1603ZM10.507 13.2769V10.3379H7.007V17.2024H8.757C9.22113 17.2024 9.66625 17.0213 9.99444 16.699C10.3226 16.3767 10.507 15.9395 10.507 15.4837V14.2256C10.4961 13.9095 10.4961 13.593 10.507 13.2769V13.2769ZM0 37.813C0 33.9872 3.1605 30.9382 7.0315 30.9382H42C43.8565 30.9382 45.637 31.6625 46.9497 32.9518C48.2625 34.2411 49 35.9897 49 37.813C49 43.6257 46.0845 48.0083 41.5275 50.8648C37.0405 53.6732 30.9925 55 24.5 55C18.0075 55 11.9595 53.6732 7.4725 50.8648C2.9155 48.0118 0 43.6222 0 37.813ZM7.0315 34.3756C5.068 34.3756 3.5 35.9121 3.5 37.813C3.5 42.3126 5.677 45.664 9.3555 47.9637C13.1005 50.3114 18.4275 51.5626 24.5 51.5626C30.5725 51.5626 35.8995 50.3114 39.6445 47.9637C43.3195 45.6606 45.5 42.316 45.5 37.813C45.5 36.9014 45.1313 36.0271 44.4749 35.3824C43.8185 34.7378 42.9283 34.3756 42 34.3756H7.0315Z" fill="#125B50"/>
</svg>
