<svg width="50" height="56" viewBox="0 0 50 56" fill="none" xmlns="http://www.w3.org/2000/svg">
<path d="M5 55.5818V50.5818H45V55.5818H5ZM5 5.58179V0.581787H45V5.58179H5ZM25 30.5818C27.0833 30.5818 28.8542 29.8526 30.3125 28.3943C31.7708 26.936 32.5 25.1651 32.5 23.0818C32.5 20.9985 31.7708 19.2276 30.3125 17.7693C28.8542 16.311 27.0833 15.5818 25 15.5818C22.9167 15.5818 21.1458 16.311 19.6875 17.7693C18.2292 19.2276 17.5 20.9985 17.5 23.0818C17.5 25.1651 18.2292 26.936 19.6875 28.3943C21.1458 29.8526 22.9167 30.5818 25 30.5818ZM5 48.0818C3.625 48.0818 2.44833 47.5926 1.47 46.6143C0.49 45.6343 0 44.4568 0 43.0818V13.0818C0 11.7068 0.49 10.5301 1.47 9.55179C2.44833 8.57179 3.625 8.08179 5 8.08179H45C46.375 8.08179 47.5525 8.57179 48.5325 9.55179C49.5108 10.5301 50 11.7068 50 13.0818V43.0818C50 44.4568 49.5108 45.6343 48.5325 46.6143C47.5525 47.5926 46.375 48.0818 45 48.0818H5ZM9.375 43.0818C11.25 40.7485 13.5208 38.9151 16.1875 37.5818C18.8542 36.2485 21.7917 35.5818 25 35.5818C28.2083 35.5818 31.1458 36.2485 33.8125 37.5818C36.4792 38.9151 38.75 40.7485 40.625 43.0818H45V13.0818H5V43.0818H9.375ZM16.75 43.0818H33.25C32.0417 42.2485 30.74 41.6235 29.345 41.2068C27.9483 40.7901 26.5 40.5818 25 40.5818C23.5 40.5818 22.0525 40.7901 20.6575 41.2068C19.2608 41.6235 17.9583 42.2485 16.75 43.0818ZM25 25.5818C24.2917 25.5818 23.6983 25.3418 23.22 24.8618C22.74 24.3835 22.5 23.7901 22.5 23.0818C22.5 22.3735 22.74 21.7793 23.22 21.2993C23.6983 20.821 24.2917 20.5818 25 20.5818C25.7083 20.5818 26.3025 20.821 26.7825 21.2993C27.2608 21.7793 27.5 22.3735 27.5 23.0818C27.5 23.7901 27.2608 24.3835 26.7825 24.8618C26.3025 25.3418 25.7083 25.5818 25 25.5818Z" fill="#125B50"/>
</svg>
