<svg width="17" height="20" viewBox="0 0 17 20" fill="none" xmlns="http://www.w3.org/2000/svg">
<path d="M7.7166 11.35L12.6666 6.4L11.2416 4.975L7.7166 8.5L6.3166 7.1L4.8916 8.525L7.7166 11.35ZM8.7666 17.35C10.7999 15.4833 12.3083 13.7873 13.2916 12.262C14.2749 10.7373 14.7666 9.38333 14.7666 8.2C14.7666 6.38333 14.1873 4.89567 13.0286 3.737C11.8706 2.579 10.4499 2 8.7666 2C7.08327 2 5.66227 2.579 4.5036 3.737C3.3456 4.89567 2.7666 6.38333 2.7666 8.2C2.7666 9.38333 3.25827 10.7373 4.2416 12.262C5.22493 13.7873 6.73327 15.4833 8.7666 17.35ZM8.7666 20C6.08327 17.7167 4.07927 15.5957 2.7546 13.637C1.42927 11.679 0.766602 9.86667 0.766602 8.2C0.766602 5.7 1.57094 3.70833 3.1796 2.225C4.7876 0.741667 6.64993 0 8.7666 0C10.8833 0 12.7456 0.741667 14.3536 2.225C15.9623 3.70833 16.7666 5.7 16.7666 8.2C16.7666 9.86667 16.1043 11.679 14.7796 13.637C13.4543 15.5957 11.4499 17.7167 8.7666 20Z" fill="#FAF5E4"/>
</svg>
